# xmcd CD database file
#
# Track frame offsets:
#	150
#	19476
#	38796
#	59915
#	80388
#	101065
#	121492
#	146661
#	164765
#	184745
#	203605
#	228239
#
# Disc length: 3477 seconds
#
# Revision: 0
# Processed by: cddbd v1.4PL0 Copyright (c) Steve Scherf et al.
# Submitted via: CDex 1.50beta10
#
DISCID=ad0d930c
DTITLE=Keepers of the groove - raise the roof
DYEAR=1996
DGENRE=Jazz
TTITLE0=The Horny Frame
TTITLE1=Wild
TTITLE2=The One
TTITLE3=Freaky
TTITLE4=Keepers of the Grove
TTITLE5=Swamp
TTITLE6=Flute Trip
TTITLE7=Alfie's Theme
TTITLE8=Hands Up
TTITLE9=Raise!
TTITLE10=Artee Artoo
TTITLE11=81
EXTD=YEAR: 1996
EXTT0=
EXTT1=
EXTT2=
EXTT3=
EXTT4=
EXTT5=
EXTT6=
EXTT7=
EXTT8=
EXTT9=
EXTT10=
EXTT11=
PLAYORDER=
